<svg id="visual" viewBox="0 0 960 540" width="960" height="540" xmlns="http://www.w3.org/2000/svg" xmlns:xlink="http://www.w3.org/1999/xlink" version="1.1"><rect x="0" y="0" width="960" height="540" fill="#001220"></rect><path d="M0 137L22.8 127.8C45.7 118.7 91.3 100.3 137 106.7C182.7 113 228.3 144 274 161.8C319.7 179.7 365.3 184.3 411.2 174C457 163.7 503 138.3 548.8 152.8C594.7 167.3 640.3 221.7 686 240.3C731.7 259 777.3 242 823 223.2C868.7 204.3 914.3 183.7 937.2 173.3L960 163L960 541L937.2 541C914.3 541 868.7 541 823 541C777.3 541 731.7 541 686 541C640.3 541 594.7 541 548.8 541C503 541 457 541 411.2 541C365.3 541 319.7 541 274 541C228.3 541 182.7 541 137 541C91.3 541 45.7 541 22.8 541L0 541Z" fill="#1a0000"></path><path d="M0 198L22.8 199.8C45.7 201.7 91.3 205.3 137 208.3C182.7 211.3 228.3 213.7 274 210.7C319.7 207.7 365.3 199.3 411.2 219.3C457 239.3 503 287.7 548.8 285.5C594.7 283.3 640.3 230.7 686 204C731.7 177.3 777.3 176.7 823 197C868.7 217.3 914.3 258.7 937.2 279.3L960 300L960 541L937.2 541C914.3 541 868.7 541 823 541C777.3 541 731.7 541 686 541C640.3 541 594.7 541 548.8 541C503 541 457 541 411.2 541C365.3 541 319.7 541 274 541C228.3 541 182.7 541 137 541C91.3 541 45.7 541 22.8 541L0 541Z" fill="#310909"></path><path d="M0 296L22.8 291.7C45.7 287.3 91.3 278.7 137 293.2C182.7 307.7 228.3 345.3 274 343.5C319.7 341.7 365.3 300.3 411.2 290.2C457 280 503 301 548.8 303.5C594.7 306 640.3 290 686 299.2C731.7 308.3 777.3 342.7 823 345.5C868.7 348.3 914.3 319.7 937.2 305.3L960 291L960 541L937.2 541C914.3 541 868.7 541 823 541C777.3 541 731.7 541 686 541C640.3 541 594.7 541 548.8 541C503 541 457 541 411.2 541C365.3 541 319.7 541 274 541C228.3 541 182.7 541 137 541C91.3 541 45.7 541 22.8 541L0 541Z" fill="#4b080d"></path><path d="M0 449L22.8 439C45.7 429 91.3 409 137 411C182.7 413 228.3 437 274 442.5C319.7 448 365.3 435 411.2 417.2C457 399.3 503 376.7 548.8 383.2C594.7 389.7 640.3 425.3 686 423.7C731.7 422 777.3 383 823 369.2C868.7 355.3 914.3 366.7 937.2 372.3L960 378L960 541L937.2 541C914.3 541 868.7 541 823 541C777.3 541 731.7 541 686 541C640.3 541 594.7 541 548.8 541C503 541 457 541 411.2 541C365.3 541 319.7 541 274 541C228.3 541 182.7 541 137 541C91.3 541 45.7 541 22.8 541L0 541Z" fill="#66040d"></path><path d="M0 405L22.8 407.8C45.7 410.7 91.3 416.3 137 428.5C182.7 440.7 228.3 459.3 274 472.5C319.7 485.7 365.3 493.3 411.2 480.5C457 467.7 503 434.3 548.8 425.2C594.7 416 640.3 431 686 446.7C731.7 462.3 777.3 478.7 823 491C868.7 503.3 914.3 511.7 937.2 515.8L960 520L960 541L937.2 541C914.3 541 868.7 541 823 541C777.3 541 731.7 541 686 541C640.3 541 594.7 541 548.8 541C503 541 457 541 411.2 541C365.3 541 319.7 541 274 541C228.3 541 182.7 541 137 541C91.3 541 45.7 541 22.8 541L0 541Z" fill="#810009"></path></svg>