<svg id="visual" viewBox="0 0 900 600" width="900" height="600" xmlns="http://www.w3.org/2000/svg" xmlns:xlink="http://www.w3.org/1999/xlink" version="1.1"><rect x="0" y="0" width="900" height="600" fill="#001220"></rect><defs><linearGradient id="grad1_0" x1="33.3%" y1="0%" x2="100%" y2="100%"><stop offset="20%" stop-color="#350000" stop-opacity="1"></stop><stop offset="80%" stop-color="#350000" stop-opacity="1"></stop></linearGradient></defs><defs><linearGradient id="grad1_1" x1="33.3%" y1="0%" x2="100%" y2="100%"><stop offset="20%" stop-color="#350000" stop-opacity="1"></stop><stop offset="80%" stop-color="#300216" stop-opacity="1"></stop></linearGradient></defs><defs><linearGradient id="grad1_2" x1="33.3%" y1="0%" x2="100%" y2="100%"><stop offset="20%" stop-color="#260720" stop-opacity="1"></stop><stop offset="80%" stop-color="#300216" stop-opacity="1"></stop></linearGradient></defs><defs><linearGradient id="grad1_3" x1="33.3%" y1="0%" x2="100%" y2="100%"><stop offset="20%" stop-color="#260720" stop-opacity="1"></stop><stop offset="80%" stop-color="#1a0d25" stop-opacity="1"></stop></linearGradient></defs><defs><linearGradient id="grad1_4" x1="33.3%" y1="0%" x2="100%" y2="100%"><stop offset="20%" stop-color="#0b1024" stop-opacity="1"></stop><stop offset="80%" stop-color="#1a0d25" stop-opacity="1"></stop></linearGradient></defs><defs><linearGradient id="grad1_5" x1="33.3%" y1="0%" x2="100%" y2="100%"><stop offset="20%" stop-color="#0b1024" stop-opacity="1"></stop><stop offset="80%" stop-color="#001220" stop-opacity="1"></stop></linearGradient></defs><defs><linearGradient id="grad2_0" x1="0%" y1="0%" x2="66.7%" y2="100%"><stop offset="20%" stop-color="#350000" stop-opacity="1"></stop><stop offset="80%" stop-color="#350000" stop-opacity="1"></stop></linearGradient></defs><defs><linearGradient id="grad2_1" x1="0%" y1="0%" x2="66.7%" y2="100%"><stop offset="20%" stop-color="#300216" stop-opacity="1"></stop><stop offset="80%" stop-color="#350000" stop-opacity="1"></stop></linearGradient></defs><defs><linearGradient id="grad2_2" x1="0%" y1="0%" x2="66.7%" y2="100%"><stop offset="20%" stop-color="#300216" stop-opacity="1"></stop><stop offset="80%" stop-color="#260720" stop-opacity="1"></stop></linearGradient></defs><defs><linearGradient id="grad2_3" x1="0%" y1="0%" x2="66.7%" y2="100%"><stop offset="20%" stop-color="#1a0d25" stop-opacity="1"></stop><stop offset="80%" stop-color="#260720" stop-opacity="1"></stop></linearGradient></defs><defs><linearGradient id="grad2_4" x1="0%" y1="0%" x2="66.7%" y2="100%"><stop offset="20%" stop-color="#1a0d25" stop-opacity="1"></stop><stop offset="80%" stop-color="#0b1024" stop-opacity="1"></stop></linearGradient></defs><defs><linearGradient id="grad2_5" x1="0%" y1="0%" x2="66.7%" y2="100%"><stop offset="20%" stop-color="#001220" stop-opacity="1"></stop><stop offset="80%" stop-color="#0b1024" stop-opacity="1"></stop></linearGradient></defs><g transform="translate(900, 0)"><path d="M0 459.7C-37 421.1 -74 382.4 -121.4 373.8C-168.9 365.1 -226.7 386.3 -270.2 371.9C-313.7 357.5 -343 307.4 -358.4 260.4C-373.8 213.4 -375.4 169.6 -389.9 126.7C-404.5 83.8 -432.1 41.9 -459.7 0L0 0Z" fill="#051123"></path><path d="M0 383.1C-30.8 350.9 -61.7 318.7 -101.2 311.5C-140.7 304.2 -188.9 321.9 -225.2 309.9C-261.5 297.9 -285.8 256.1 -298.7 217C-311.5 177.8 -312.8 141.3 -324.9 105.6C-337.1 69.9 -360.1 34.9 -383.1 0L0 0Z" fill="#130f25"></path><path d="M0 306.5C-24.7 280.7 -49.4 255 -81 249.2C-112.6 243.4 -151.1 257.6 -180.1 247.9C-209.2 238.3 -228.7 204.9 -238.9 173.6C-249.2 142.3 -250.2 113 -260 84.5C-269.7 55.9 -288.1 27.9 -306.5 0L0 0Z" fill="#200a23"></path><path d="M0 229.9C-18.5 210.5 -37 191.2 -60.7 186.9C-84.4 182.5 -113.3 193.2 -135.1 186C-156.9 178.7 -171.5 153.7 -179.2 130.2C-186.9 106.7 -187.7 84.8 -195 63.3C-202.3 41.9 -216.1 21 -229.9 0L0 0Z" fill="#2c041c"></path><path d="M0 153.2C-12.3 140.4 -24.7 127.5 -40.5 124.6C-56.3 121.7 -75.6 128.8 -90.1 124C-104.6 119.2 -114.3 102.5 -119.5 86.8C-124.6 71.1 -125.1 56.5 -130 42.2C-134.8 27.9 -144 14 -153.2 0L0 0Z" fill="#33000d"></path><path d="M0 76.6C-6.2 70.2 -12.3 63.7 -20.2 62.3C-28.1 60.8 -37.8 64.4 -45 62C-52.3 59.6 -57.2 51.2 -59.7 43.4C-62.3 35.6 -62.6 28.3 -65 21.1C-67.4 14 -72 7 -76.6 0L0 0Z" fill="#350000"></path></g><g transform="translate(0, 600)"><path d="M0 -459.7C41.4 -428.8 82.9 -397.9 123.9 -381.4C165 -364.8 205.6 -362.5 253.9 -349.5C302.2 -336.5 358.1 -312.6 371.9 -270.2C385.8 -227.8 357.6 -166.8 365.2 -118.7C372.8 -70.5 416.3 -35.3 459.7 0L0 0Z" fill="#051123"></path><path d="M0 -383.1C34.5 -357.4 69.1 -331.6 103.3 -317.8C137.5 -304 171.4 -302.1 211.6 -291.2C251.8 -280.4 298.4 -260.5 309.9 -225.2C321.5 -189.8 298 -139 304.3 -98.9C310.7 -58.8 346.9 -29.4 383.1 0L0 0Z" fill="#130f25"></path><path d="M0 -306.5C27.6 -285.9 55.2 -265.3 82.6 -254.2C110 -243.2 137.1 -241.7 169.3 -233C201.5 -224.3 238.7 -208.4 247.9 -180.1C257.2 -151.9 238.4 -111.2 243.5 -79.1C248.6 -47 277.5 -23.5 306.5 0L0 0Z" fill="#200a23"></path><path d="M0 -229.9C20.7 -214.4 41.4 -199 62 -190.7C82.5 -182.4 102.8 -181.3 127 -174.7C151.1 -168.2 179 -156.3 186 -135.1C192.9 -113.9 178.8 -83.4 182.6 -59.3C186.4 -35.3 208.1 -17.6 229.9 0L0 0Z" fill="#2c041c"></path><path d="M0 -153.2C13.8 -142.9 27.6 -132.6 41.3 -127.1C55 -121.6 68.5 -120.8 84.6 -116.5C100.7 -112.2 119.4 -104.2 124 -90.1C128.6 -75.9 119.2 -55.6 121.7 -39.6C124.3 -23.5 138.8 -11.8 153.2 0L0 0Z" fill="#33000d"></path><path d="M0 -76.6C6.9 -71.5 13.8 -66.3 20.7 -63.6C27.5 -60.8 34.3 -60.4 42.3 -58.2C50.4 -56.1 59.7 -52.1 62 -45C64.3 -38 59.6 -27.8 60.9 -19.8C62.1 -11.8 69.4 -5.9 76.6 0L0 0Z" fill="#350000"></path></g></svg>